RBDS026runT35_grf
version=1
nRows=37
nColumns=19
inDegrees=no
endheader
time	ground_force_r_vx	ground_force_r_vy	ground_force_r_vz	ground_force_r_px	ground_force_r_py	ground_force_r_pz	ground_force_r_mx	ground_force_r_my	ground_force_r_mz	ground_force_l_vx	ground_force_l_vy	ground_force_l_vz	ground_force_l_px	ground_force_l_py	ground_force_l_pz	ground_force_l_mx	ground_force_l_my	ground_force_l_mz
      0.00000000	      0.00000000	      0.00000000	      0.00000000	      0.00000000	      0.00000000	      0.00000000	      0.00000000	      0.00000000	      0.00000000	   -232.01562851	   1814.42431222	     84.15523630	      2.12737811	      0.00000000	      0.96325571	     -0.00000000	     17.24347546	      0.00000000
      0.00100000	      0.00000000	      0.00000000	      0.00000000	      0.00000000	      0.00000000	      0.00000000	      0.00000000	      0.00000000	      0.00000000	   -227.29151080	   1822.15749140	     84.40267587	      2.12544855	      0.00000000	      0.96315909	     -0.00000000	     17.06750466	     -0.00000000
      0.00200000	      0.00000000	      0.00000000	      0.00000000	      0.00000000	      0.00000000	      0.00000000	      0.00000000	      0.00000000	      0.00000000	   -222.56739310	   1829.89067058	     84.65011545	      2.12351898	      0.00000000	      0.96306247	     -0.00000000	     16.89153386	     -0.00000000
      0.00300000	      0.00000000	      0.00000000	      0.00000000	      0.00000000	      0.00000000	      0.00000000	      0.00000000	      0.00000000	      0.00000000	   -217.84327539	   1837.62384976	     84.89755502	      2.12158942	      0.00000000	      0.96296584	     -0.00000000	     16.71556306	     -0.00000000
      0.00400000	      0.00000000	      0.00000000	      0.00000000	      0.00000000	      0.00000000	      0.00000000	      0.00000000	      0.00000000	      0.00000000	   -213.09412579	   1845.28158411	     85.14794983	      2.11966227	      0.00000000	      0.96286790	     -0.00000000	     16.53796342	     -0.00000000
      0.00500000	      0.00000000	      0.00000000	      0.00000000	      0.00000000	      0.00000000	      0.00000000	      0.00000000	      0.00000000	      0.00000000	   -208.33246023	   1852.90159604	     85.39982227	      2.11773633	      0.00000000	      0.96276930	     -0.00000000	     16.35954936	     -0.00000000
      0.00600000	      0.00000000	      0.00000000	      0.00000000	      0.00000000	      0.00000000	      0.00000000	      0.00000000	      0.00000000	      0.00000000	   -203.57079468	   1860.52160798	     85.65169470	      2.11581038	      0.00000000	      0.96267069	     -0.00000000	     16.18113530	     -0.00000000
      0.00700000	      0.00000000	      0.00000000	      0.00000000	      0.00000000	      0.00000000	      0.00000000	      0.00000000	      0.00000000	      0.00000000	   -198.79265467	   1868.03086632	     85.90082112	      2.11388171	      0.00000000	      0.96257160	     -0.00000000	     16.00326585	     -0.00000000
      0.00800000	      0.00000000	      0.00000000	      0.00000000	      0.00000000	      0.00000000	      0.00000000	      0.00000000	      0.00000000	      0.00000000	   -193.98156574	   1875.31861750	     86.14445552	      2.11194759	      0.00000000	      0.96247155	     -0.00000000	     15.82648559	     -0.00000000
      0.00900000	      0.00000000	      0.00000000	      0.00000000	      0.00000000	      0.00000000	      0.00000000	      0.00000000	      0.00000000	      0.00000000	   -189.17047681	   1882.60636867	     86.38808993	      2.11001346	      0.00000000	      0.96237149	     -0.00000000	     15.64970533	     -0.00000000
      0.01000000	      0.00000000	      0.00000000	      0.00000000	      0.00000000	      0.00000000	      0.00000000	      0.00000000	      0.00000000	      0.00000000	   -184.35938788	   1889.89411984	     86.63172433	      2.10807933	      0.00000000	      0.96227143	     -0.00000000	     15.47292508	     -0.00000000
      0.01100000	      0.00000000	      0.00000000	      0.00000000	      0.00000000	      0.00000000	      0.00000000	      0.00000000	      0.00000000	      0.00000000	   -179.48422727	   1896.63186887	     86.85299495	      2.10612438	      0.00000000	      0.96217061	     -0.00000000	     15.30147748	     -0.00000000
      0.01200000	      0.00000000	      0.00000000	      0.00000000	      0.00000000	      0.00000000	      0.00000000	      0.00000000	      0.00000000	      0.00000000	   -174.60906666	   1903.36961791	     87.07426557	      2.10416944	      0.00000000	      0.96206978	     -0.00000000	     15.13002987	     -0.00000000
      0.01300000	      0.00000000	      0.00000000	      0.00000000	      0.00000000	      0.00000000	      0.00000000	      0.00000000	      0.00000000	      0.00000000	   -169.73390605	   1910.10736695	     87.29553618	      2.10221449	      0.00000000	      0.96196896	     -0.00000000	     14.95858227	     -0.00000000
      0.01400000	      0.00000000	      0.00000000	      0.00000000	      0.00000000	      0.00000000	      0.00000000	      0.00000000	      0.00000000	      0.00000000	   -164.80519299	   1916.33836160	     87.49169263	      2.10023715	      0.00000000	      0.96186821	     -0.00000000	     14.79280629	     -0.00000000
      0.01500000	      0.00000000	      0.00000000	      0.00000000	      0.00000000	      0.00000000	      0.00000000	      0.00000000	      0.00000000	      0.00000000	   -159.84970370	   1922.31597906	     87.67529199	      2.09824861	      0.00000000	      0.96176750	      0.00000000	     14.62986613	     -0.00000000
      0.01600000	      0.00000000	      0.00000000	      0.00000000	      0.00000000	      0.00000000	      0.00000000	      0.00000000	      0.00000000	      0.00000000	   -154.89421441	   1928.29359651	     87.85889134	      2.09626007	      0.00000000	      0.96166678	      0.00000000	     14.46692596	     -0.00000000
      0.01700000	      0.00000000	      0.00000000	      0.00000000	      0.00000000	      0.00000000	      0.00000000	      0.00000000	      0.00000000	      0.00000000	   -149.90641460	   1933.95221857	     88.02455568	      2.09425624	      0.00000000	      0.96156646	      0.00000000	     14.30767112	     -0.00000000
      0.01800000	      0.00000000	      0.00000000	      0.00000000	      0.00000000	      0.00000000	      0.00000000	      0.00000000	      0.00000000	      0.00000000	   -144.85399373	   1938.97284983	     88.15434996	      2.09222181	      0.00000000	      0.96146693	      0.00000000	     14.15578693	     -0.00000000
      0.01900000	      0.00000000	      0.00000000	      0.00000000	      0.00000000	      0.00000000	      0.00000000	      0.00000000	      0.00000000	      0.00000000	   -139.80157286	   1943.99348110	     88.28414424	      2.09018739	      0.00000000	      0.96136739	      0.00000000	     14.00390275	     -0.00000000
      0.02000000	      0.00000000	      0.00000000	      0.00000000	      0.00000000	      0.00000000	      0.00000000	      0.00000000	      0.00000000	      0.00000000	   -134.74915199	   1949.01411236	     88.41393852	      2.08815296	      0.00000000	      0.96126785	      0.00000000	     13.85201856	     -0.00000000
      0.02100000	      0.00000000	      0.00000000	      0.00000000	      0.00000000	      0.00000000	      0.00000000	      0.00000000	      0.00000000	      0.00000000	   -129.58417373	   1952.89902119	     88.47340592	      2.08606133	      0.00000000	      0.96117075	      0.00000000	     13.71305523	     -0.00000000
      0.02200000	      0.00000000	      0.00000000	      0.00000000	      0.00000000	      0.00000000	      0.00000000	      0.00000000	      0.00000000	      0.00000000	   -124.41919546	   1956.78393003	     88.53287332	      2.08396970	      0.00000000	      0.96107364	      0.00000000	     13.57409191	     -0.00000000
      0.02300000	      0.00000000	      0.00000000	      0.00000000	      0.00000000	      0.00000000	      0.00000000	      0.00000000	      0.00000000	      0.00000000	   -119.25421720	   1960.66883886	     88.59234072	      2.08187807	      0.00000000	      0.96097654	      0.00000000	     13.43512858	     -0.00000000
      0.02400000	      0.00000000	      0.00000000	      0.00000000	      0.00000000	      0.00000000	      0.00000000	      0.00000000	      0.00000000	      0.00000000	   -114.00533385	   1963.69209687	     88.59399134	      2.07974167	      0.00000000	      0.96088201	      0.00000000	     13.30555606	     -0.00000000
      0.02500000	      0.00000000	      0.00000000	      0.00000000	      0.00000000	      0.00000000	      0.00000000	      0.00000000	      0.00000000	      0.00000000	   -108.71449796	   1966.28452947	     88.56673356	      2.07758288	      0.00000000	      0.96078878	      0.00000000	     13.18067895	     -0.00000000
      0.02600000	      0.00000000	      0.00000000	      0.00000000	      0.00000000	      0.00000000	      0.00000000	      0.00000000	      0.00000000	      0.00000000	   -103.42366206	   1968.87696207	     88.53947578	      2.07542410	      0.00000000	      0.96069555	      0.00000000	     13.05580183	     -0.00000000
      0.02700000	      0.00000000	      0.00000000	      0.00000000	      0.00000000	      0.00000000	      0.00000000	      0.00000000	      0.00000000	      0.00000000	    -98.08766129	   1970.99457642	     88.47807273	      2.07324016	      0.00000000	      0.96060413	      0.00000000	     12.93578186	     -0.00000000
      0.02800000	      0.00000000	      0.00000000	      0.00000000	      0.00000000	      0.00000000	      0.00000000	      0.00000000	      0.00000000	      0.00000000	    -92.66133077	   1972.16255429	     88.34837914	      2.07100591	      0.00000000	      0.96051636	      0.00000000	     12.82547616	     -0.00000000
      0.02900000	      0.00000000	      0.00000000	      0.00000000	      0.00000000	      0.00000000	      0.00000000	      0.00000000	      0.00000000	      0.00000000	    -87.23500025	   1973.33053216	     88.21868554	      2.06877167	      0.00000000	      0.96042859	      0.00000000	     12.71517046	     -0.00000000
      0.03000000	      0.00000000	      0.00000000	      0.00000000	      0.00000000	      0.00000000	      0.00000000	      0.00000000	      0.00000000	      0.00000000	    -81.80866972	   1974.49851003	     88.08899195	      2.06653743	      0.00000000	      0.96034082	      0.00000000	     12.60486476	     -0.00000000
      0.03100000	      0.00000000	      0.00000000	      0.00000000	      0.00000000	      0.00000000	      0.00000000	      0.00000000	      0.00000000	      0.00000000	    -76.24215486	   1974.13652963	     87.84242871	      2.06422124	      0.00000000	      0.96026021	      0.00000000	     12.50898211	     -0.00000000
      0.03200000	      0.00000000	      0.00000000	      0.00000000	      0.00000000	      0.00000000	      0.00000000	      0.00000000	      0.00000000	      0.00000000	    -70.67563999	   1973.77454922	     87.59586547	      2.06190506	      0.00000000	      0.96017961	      0.00000000	     12.41309945	     -0.00000000
      0.03300000	      0.00000000	      0.00000000	      0.00000000	      0.00000000	      0.00000000	      0.00000000	      0.00000000	      0.00000000	      0.00000000	    -65.10912513	   1973.41256881	     87.34930223	      2.05958887	      0.00000000	      0.96009901	      0.00000000	     12.31721679	     -0.00000000
      0.03400000	      0.00000000	      0.00000000	      0.00000000	      0.00000000	      0.00000000	      0.00000000	      0.00000000	      0.00000000	      0.00000000	    -59.45011207	   1971.97836433	     87.01644370	      2.05721500	      0.00000000	      0.96002437	      0.00000000	     12.23047205	     -0.00000000
      0.03500000	      0.00000000	      0.00000000	      0.00000000	      0.00000000	      0.00000000	      0.00000000	      0.00000000	      0.00000000	      0.00000000	    -53.74484992	   1970.00804781	     86.64043752	      2.05481229	      0.00000000	      0.95995272	      0.00000000	     12.14829627	     -0.00000000
      0.03600000	      0.00000000	      0.00000000	      0.00000000	      0.00000000	      0.00000000	      0.00000000	      0.00000000	      0.00000000	      0.00000000	    -48.03958777	   1968.03773128	     86.26443134	      2.05240958	      0.00000000	      0.95988107	      0.00000000	     12.06612049	     -0.00000000
